<svg width="672" height="562" viewBox="0 0 672 562" fill="none" xmlns="http://www.w3.org/2000/svg">
<path opacity="0.5" d="M54.7941 328.739C56.1214 323.38 63.7393 323.38 65.0666 328.739L70.6745 351.383C71.1544 353.32 72.6838 354.823 74.6297 355.269L97.3346 360.467C102.815 361.722 102.815 369.528 97.3346 370.783L74.6297 375.982C72.6838 376.428 71.1544 377.93 70.6745 379.868L65.0666 402.512C63.7393 407.871 56.1214 407.871 54.7941 402.512L49.1862 379.868C48.7063 377.93 47.1769 376.428 45.231 375.982L22.5261 370.783C17.0456 369.528 17.0456 361.722 22.5261 360.467L45.231 355.269C47.1769 354.823 48.7063 353.32 49.1862 351.383L54.7941 328.739Z" fill="#A4D8FD"/>
<path d="M633.577 412.987L634.682 435.211C635.087 443.358 641.601 449.872 649.748 450.277L671.971 451.382L649.748 452.487C641.601 452.892 635.087 459.406 634.682 467.553L633.577 489.776L632.472 467.553C632.067 459.406 625.553 452.892 617.406 452.487L595.182 451.382L617.406 450.277C625.553 449.872 632.067 443.358 632.472 435.211L633.577 412.987Z" fill="#30A9FF"/>
<path opacity="0.5" d="M622.644 0L628.117 22.1708L650.288 27.644L628.117 33.1173L622.644 55.2881L617.171 33.1173L595 27.644L617.171 22.1708L622.644 0Z" fill="#FE7589"/>
<rect x="184.887" y="84.121" width="20.7451" height="23.0501" rx="10.3726" fill="#FFE2F5"/>
<rect x="104" y="544" width="16.1351" height="17.2876" rx="8.06755" fill="#FFE2F5"/>
</svg>
